HIERARCHY
ROOT Hips
{
	OFFSET 0.000000 0.000000 0.000000 
	CHANNELS 6 Xposition Yposition Zposition Zrotation Yrotation Xrotation
	JOINT LeftUpLeg
	{
		OFFSET 1.363060 -1.794630 0.839290 
		CHANNELS 3 Zrotation Yrotation Xrotation
		JOINT LeftLeg
		{
			OFFSET 2.448110 -6.726130 0.000000 
			CHANNELS 3 Zrotation Yrotation Xrotation
			JOINT LeftFoot
			{
				OFFSET 2.562200 -7.039590 0.000000 
				CHANNELS 3 Zrotation Yrotation Xrotation
				JOINT LeftToeBase
				{
					OFFSET 0.157640 -0.433110 2.322550 
					CHANNELS 3 Zrotation Yrotation Xrotation
					End Site
					{
						OFFSET 0.000000 0.000000 0.000000 
					}
				}
			}
		}
	}
	JOINT RightUpLeg
	{
		OFFSET -1.305520 -1.794630 0.839290 
		CHANNELS 3 Zrotation Yrotation Xrotation
		JOINT RightLeg
		{
			OFFSET -2.542530 -6.985550 0.000000 
			CHANNELS 3 Zrotation Yrotation Xrotation
			JOINT RightFoot
			{
				OFFSET -2.568260 -7.056230 0.000000 
				CHANNELS 3 Zrotation Yrotation Xrotation
				JOINT RightToeBase
				{
					OFFSET -0.164730 -0.452590 2.363150 
					CHANNELS 3 Zrotation Yrotation Xrotation
					End Site
					{
						OFFSET 0.000000 0.000000 0.000000 
					}
				}
			}
		}
	}
	JOINT Spine
	{
		OFFSET 0.028270 2.035590 -0.193380 
		CHANNELS 3 Zrotation Yrotation Xrotation
		JOINT Spine1
		{
			OFFSET 0.056720 2.048850 -0.042750 
			CHANNELS 3 Zrotation Yrotation Xrotation
			JOINT Neck1
			{
				OFFSET -0.054170 1.746240 0.172020 
				CHANNELS 3 Zrotation Yrotation Xrotation
				JOINT Head
				{
					OFFSET 0.104070 1.761360 -0.123970 
					CHANNELS 3 Zrotation Yrotation Xrotation
					End Site
					{
						OFFSET 0.000000 0.000000 0.000000 
					}
				}
			}
			JOINT LeftArm
			{
				OFFSET 3.362410 1.200890 -0.311210 
				CHANNELS 3 Zrotation Yrotation Xrotation
				JOINT LeftForeArm
				{
					OFFSET 4.983000 -0.000000 -0.000000 
					CHANNELS 3 Zrotation Yrotation Xrotation
					JOINT LeftHand
					{
						OFFSET 3.483560 -0.000000 -0.000000 
						CHANNELS 3 Zrotation Yrotation Xrotation
						JOINT LeftHandIndex1
						{
							OFFSET 0.715260 -0.000000 -0.000000 
							CHANNELS 3 Zrotation Yrotation Xrotation
							End Site
							{
								OFFSET 0.000000 0.000000 0.000000 
							}
						}
					}
				}
			}
			JOINT RightArm
			{
				OFFSET -3.136600 1.374050 -0.404650 
				CHANNELS 3 Zrotation Yrotation Xrotation
				JOINT RightForeArm
				{
					OFFSET -5.241900 -0.000000 -0.000000 
					CHANNELS 3 Zrotation Yrotation Xrotation
					JOINT RightHand
					{
						OFFSET -3.444170 -0.000000 -0.000000 
						CHANNELS 3 Zrotation Yrotation Xrotation
						JOINT RightHandIndex1
						{
							OFFSET -0.622530 -0.000000 -0.000000 
							CHANNELS 3 Zrotation Yrotation Xrotation
							End Site
							{
								OFFSET 0.000000 0.000000 0.000000 
							}
						}
					}
				}
			}
		}
	}
}
MOTION
Frames: 9
Frame Time: 0.041667
0.737975 17.859994 -29.307231 0.978250 1.080811 2.397439 -25.202354 -1.906138 -13.356525 0.620705 6.449402 18.167441 1.069073 -9.173171 -1.798242 0.525100 4.643800 12.895300 20.022550 -1.054934 -8.175829 -10.879088 -17.666160 63.039516 1.186020 -11.407976 -6.005547 -1.222900 -7.013900 19.756600 0.098899 0.629247 -2.363272 3.336005 0.149916 -3.586523 4.666165 -2.529210 8.883624 0.655200 -1.201900 8.134800 -85.144847 10.698805 21.835660 17.243793 -27.535793 -3.854074 0.432545 0.137612 3.797619 -7.125000 0.000000 0.000000 83.433334 4.989109 1.512031 -8.837247 15.697491 -0.678445 1.174313 0.176609 -11.242734 7.125000 0.000000 0.000000 
0.752885 17.857357 -29.212803 1.068909 1.488809 2.226608 -25.408686 -1.804404 -12.735569 0.610910 6.415321 18.082281 1.072644 -9.104041 -2.023666 0.542300 4.718200 13.106400 19.875767 -1.086663 -9.204151 -11.262360 -17.875212 64.322521 1.156042 -11.194225 -6.034914 -1.170100 -6.866300 19.320000 0.125252 0.383406 -2.337291 3.500314 0.027517 -3.522374 4.408760 -2.440278 8.968971 0.535500 -1.179200 8.156000 -85.089056 10.091293 21.757669 17.321768 -27.657605 -3.885054 0.432873 0.138613 3.890031 -7.125000 0.000000 0.000000 83.366655 4.984122 2.347742 -9.081069 16.135769 -0.759458 1.164461 0.222585 -11.777002 7.125000 0.000000 0.000000 
0.773271 17.862732 -29.114522 1.150017 2.151751 2.031321 -25.641572 -2.087163 -12.122146 0.621726 6.450983 18.189840 1.084180 -9.098393 -2.317791 0.418300 4.151400 11.503000 19.786366 -1.132289 -10.061314 -11.583407 -18.045100 65.388988 1.153576 -11.169859 -6.275357 -1.202900 -6.958500 19.592300 0.127802 0.026876 -2.282648 3.512887 -0.162163 -3.312496 4.364319 -2.571575 9.274867 0.462600 -1.225800 8.315200 -84.843704 9.347792 21.826447 17.240688 -27.572445 -3.861332 0.436966 0.136520 3.761649 -7.125000 0.000000 0.000000 83.361009 5.099416 3.219945 -9.288693 16.532032 -0.829755 1.162615 0.244359 -12.898756 7.125000 0.000000 0.000000 
0.783820 17.854416 -29.023137 1.224277 2.653939 1.948251 -25.801553 -2.175374 -11.666294 0.628693 6.492750 18.308627 1.097720 -8.947832 -2.823805 0.309800 3.578600 9.894000 19.696773 -1.008429 -11.183967 -11.888983 -18.200395 66.390868 1.086673 -10.706125 -5.983577 -1.145300 -6.795800 19.111700 0.151036 -0.161498 -2.318302 3.672557 -0.248986 -3.440090 4.272235 -2.535263 9.704242 0.430300 -1.208300 8.498000 -84.673257 8.997442 22.082933 17.467747 -27.887362 -3.968736 0.436922 0.133954 4.072440 -7.125000 0.000000 0.000000 83.246711 5.042721 3.465929 -9.374206 16.678709 -0.846499 1.171334 0.231159 -13.247798 7.125000 0.000000 0.000000 
0.805018 17.838086 -28.923739 1.272965 2.826839 1.829378 -26.018650 -2.141185 -11.182623 0.635089 6.518949 18.385952 1.107269 -8.870909 -3.150095 0.231400 3.096100 8.546500 19.545639 -0.651903 -12.043437 -12.147455 -18.332658 67.239834 1.021449 -10.258803 -6.285687 -1.084200 -6.618000 18.588300 0.147886 -0.284156 -2.214901 3.673992 -0.334206 -3.021454 4.522070 -2.548928 9.713332 0.585900 -1.202400 8.519300 -84.564764 7.852038 22.015022 17.249226 -27.612501 -3.851640 0.443833 0.132900 4.325518 -7.125000 0.000000 0.000000 83.295759 5.212880 4.325030 -9.636820 17.190618 -0.945437 1.162665 0.271912 -13.928391 7.125000 0.000000 0.000000 
0.819217 17.839404 -28.823835 1.334991 3.147337 1.803286 -26.191560 -2.080302 -10.969985 0.673356 6.632657 18.712205 1.144307 -9.002703 -3.638127 0.205400 2.918100 8.050700 19.416069 -0.387355 -13.117698 -12.344505 -18.432826 67.882815 0.915840 -9.520438 -6.231607 -0.953100 -6.216900 17.414900 0.198680 -0.519543 -2.258012 3.940335 -0.443349 -3.132485 4.386791 -2.480528 10.020224 0.509600 -1.171100 8.716000 -84.504799 7.494304 21.934393 17.527146 -27.989218 -3.969177 0.436706 0.141446 4.391573 -7.125000 0.000000 0.000000 83.148458 5.521092 3.888337 -9.525065 16.967576 -0.888057 1.179158 0.234874 -13.383779 7.125000 0.000000 0.000000 
0.842241 17.831493 -28.735290 1.382968 3.599688 1.646786 -26.358958 -2.403573 -10.471584 0.712439 6.722921 18.995173 1.152735 -9.153927 -3.632287 0.377200 3.944400 10.920300 19.241363 -0.302300 -14.029330 -12.500613 -18.507673 68.390444 0.799475 -8.699559 -6.411163 -0.864900 -5.929900 16.581300 0.161720 -0.496378 -2.436668 3.814297 -0.394937 -3.781345 4.562061 -2.647129 9.989631 0.613700 -1.245700 8.364800 -84.129695 7.692249 22.863481 17.555162 -28.009054 -4.006041 0.439678 0.130387 4.786408 -7.125000 0.000000 0.000000 83.236180 4.398711 3.336843 -9.763276 17.409471 -0.975351 1.170343 0.228162 -13.424811 7.125000 0.000000 0.000000 
0.852688 17.821655 -28.645122 1.424540 4.067933 1.522216 -26.493676 -2.507906 -10.031271 0.742226 6.795418 19.219478 1.170324 -9.248844 -3.837864 0.454000 4.322700 11.986400 19.140445 -0.106783 -14.871681 -12.603560 -18.564420 68.727023 0.688521 -7.890563 -6.351596 -1.016700 -6.415100 17.993700 0.119157 -0.659578 -2.471864 3.671186 -0.466858 -3.966577 4.294464 -2.917258 10.022023 0.371700 -1.368400 8.368600 -83.699941 6.971822 23.305611 17.565164 -28.006016 -3.996742 0.438355 0.138055 4.593487 -7.125000 0.000000 0.000000 83.462583 4.288083 3.338117 -9.931102 17.705748 -1.031984 1.166498 0.243893 -13.818219 7.125000 0.000000 0.000000 
0.866786 17.811614 -28.546739 1.476418 4.417129 1.495679 -26.681102 -2.522605 -9.726265 0.764909 6.901977 19.510103 1.182116 -8.930471 -4.470161 0.223400 3.042400 8.396700 19.053446 0.162792 -15.868646 -12.668428 -18.610037 68.944349 0.550003 -6.859318 -6.365806 -0.850300 -5.881300 16.440300 0.241555 -1.138881 -2.334524 4.127236 -0.739530 -3.393135 4.466825 -2.302548 10.535844 0.617800 -1.082400 8.820900 -84.090623 5.874168 22.517400 17.561636 -28.057152 -4.009100 0.440847 0.134631 4.733432 -7.125000 0.000000 0.000000 83.160477 5.061518 4.415874 -10.045498 17.909325 -1.058416 1.176483 0.263003 -13.877482 7.125000 0.000000 0.000000 
